<?xml version="1.0" encoding="UTF-8" standalone="no"?>
<svg
   version="1.1"
   width="2754"
   height="1398"
   id="svg-world-map"
   sodipodi:docname="how-to-center-text-inside-an-svg-path.svg"
   inkscape:version="1.1.2 (b8e25be833, 2022-02-05)"
   xmlns:inkscape="http://www.inkscape.org/namespaces/inkscape"
   xmlns:sodipodi="http://sodipodi.sourceforge.net/DTD/sodipodi-0.dtd"
   xmlns="http://www.w3.org/2000/svg"
   xmlns:svg="http://www.w3.org/2000/svg"
   xmlns:rdf="http://www.w3.org/1999/02/22-rdf-syntax-ns#"
   xmlns:cc="http://creativecommons.org/ns#"
   xmlns:dc="http://purl.org/dc/elements/1.1/">
  <defs
     id="defs-world-map" />
  <sodipodi:namedview
     id="namedview-world-map"
     pagecolor="#ffffff"
     bordercolor="#666666"
     borderopacity="1.0"
     inkscape:pageshadow="2"
     inkscape:pageopacity="0.0"
     inkscape:pagecheckerboard="0"
     showgrid="false"
     inkscape:zoom="9.5213879"
     inkscape:cx="1662.5727"
     inkscape:cy="559.05715"
     inkscape:window-width="1920"
     inkscape:window-height="991"
     inkscape:window-x="-9"
     inkscape:window-y="-9"
     inkscape:window-maximized="1"
     inkscape:current-layer="svg-world-map" />
  <title
     id="title-world-map">World Map</title>
  <!--
/*
 * Territories without ISO 3166-1 codes are listed above inside their respective host countries' groupings:
 *
 * xa, xo, xj, xk, xs, xq, xn, xz, xv, xp, xd, xl, xc
 */
-->
  <metadata
     id="metadata-world-map">
    <rdf:RDF>
      <cc:Work
         rdf:about="">
        <dc:title>World Map</dc:title>
      </cc:Work>
    </rdf:RDF>
  </metadata>
  <style
     id="style_css_sheet"
     type="text/css">

/*
 * Below are Cascading Style Sheet (CSS) definitions in use in this file,
 * which allow easily changing how countries are displayed.
 *
 * The styles are applied in the order in which they are defined (and re-defined) here in the preamble.
 */

/*
 * Circles around small countries and territories
 *
 * Change opacity to 1 to display all circles
 */
.circlexx
{
	opacity: 0;
	fill: #c0c0c0;
	stroke: #000000;
	stroke-width: 0.5;
}

/*
 * Smaller circles around subnational territories: Australian external territories, Chinese SARs, Dutch special municipalities, and French DOMs (overseas regions/departments) [but not French COMs (overseas collectivities)]
 *
 * Change opacity to 1 to display all circles
 */
.subxx
{
	opacity: 0;
	fill: #c0c0c0;
	stroke: #000000;
	stroke-width: 0.3;
}


/*
 * Land
 * (all land, as opposed to water, should belong to this class; in order to modify the coastline for land pieces with no borders on them a special class &quot;coastxx&quot; has been added below)
 */
.landxx
{
	fill: #c0c0c0;
	stroke: #ffffff;
	stroke-width: 0.5;
	fill-rule: evenodd;
}

/*
 * Styles for coastlines of islands and continents with no borders on them
 * (all of them should also belong to the class &quot;landxx&quot; - to allow for all land to be modified at once by refining &quot;landxx&quot; style's definition further down)
 */
.coastxx
{
	stroke-width: 0.2;
}


/*
 * Styles for territories without permanent population (the largest of which is Antarctica)
 *
 * Change opacity to 0 to hide all territories
 */
.antxx
{
	opacity: 1;
	fill: #c0c0c0;
}

/*
 * Circles around small countries without permanent population
 *
 * Change opacity to 1 to display all circles
 */
.noxx
{
	opacity: 0;
	fill: #c0c0c0;
	stroke: #000000;
	stroke-width: 0.5;
}


/*
 * Styles for territories with limited or no recognition
 * (all of them - including Taiwan - are overlays (i.e. duplicate layers) over their &quot;host&quot; countries, and so not showing them doesn't leave any gaps on the map)
 *
 * Change opacity to 1 to display all territories
 */
.limitxx
{
	opacity: 0;
	fill: #c0c0c0;
	stroke: #ffffff;
	stroke-width: 0.2;
	fill-rule: evenodd;
}

/*
 * Smaller circles around small territories with limited or no recognition
 *
 * Change opacity to 1 to display all circles
 */
.unxx
{
	opacity: 0;
	fill: #c0c0c0;
	stroke: #000000;
	stroke-width: 0.3;
}


/*
 * Oceans, seas, and large lakes
 */
.oceanxx
{
	opacity: 1;
	fill: #c8eafb;
	stroke: #000000;
	stroke-width: 0.5;
}

/*
 * Reserved class names:
 *
 * .eu - for members of European Union
 * .eaeu - for members of Eurasian Economic Union
 */


/*
 * Additional style rules
 *
 * The following are examples of colouring countries.
 * These can be substituted with custom styles to colour the countries on the map.
 *
 * Colour a few countries:
 *
 * .gb, .au, .nc
 * {
 * 	fill: #ff0000;
 * }
 *
 * Colour a few small-country circles (along with the countries):
 *
 * .ms, .ky
 * {
 * 	opacity: 1;
 * 	fill: #ff0000;
 * }
 *
 */
 
.text_style{
  text-anchor: middle;
  dominant-baseline: middle;
}


  </style>
  <path
     id="Yemen_mainland"
     class="landxx ye"
     d="m 1702.78,554.229 c -2.43,-0.09 -1.06,-5.061 -3.46,-5.344 1.08,-1.714 -2.92,-7.033 -3.61,-8.909 l -2.81,-6.489 c -7.13,1.401 -14.28,2.934 -21.3,3.881 -5.85,1.805 -8.8,4.713 -10.12,7.879 -1.22,1.824 -1.88,6.43 -4.8,6.253 -1.99,-0.12 -1.78,-3.107 -3.69,-2.881 -2.42,0.285 -4.39,0.24 -6.84,-0.104 -1.39,-0.195 -2.82,-1.184 -4.18,-1.184 -1.5,0 -3,0.145 -4.5,0.287 -1.84,0.174 -3.39,1 -5.3,0.895 -1.05,-0.06 -1.44,-1.224 -2.51,-1.357 -1.02,-0.128 -1.81,0.563 -2.24,1.429 -0.47,0.945 -0.62,2.091 -0.44,3.129 0.11,0.672 1.05,1.339 0.54,2.028 -0.48,0.653 -0.87,1.324 -1.36,2.004 -0.27,0.372 -0.6,0.665 -1.01,0.88 -0.96,0.48 -0.47,0.845 -0.27,1.898 0.31,1.668 -0.32,2.441 -0.61,3.961 -0.28,1.407 0.9,2.63 0.77,4.029 -0.27,-0.24 -1.7,-0.277 -1.46,0.282 0,-0.117 1.44,0.726 1.44,0.722 0.8,0.856 1.1,1.742 1.38,2.862 0.53,2.196 0.58,4.644 1.27,6.78 0.28,0.877 0.98,1.533 1.32,2.388 0.4,1.031 0,2.149 0,3.204 0,2.087 2.48,3.843 1.8,5.963 0.92,0.07 1.54,-0.446 2.47,-0.07 0.99,0.396 1.67,0.723 2.77,0.506 2.25,-0.447 3.26,-2.023 5.61,-0.79 -0.12,-0.64 0.56,-1.29 0.79,-0.359 0.39,-0.428 0.61,-0.925 0.93,-1.401 0.49,-0.753 1.3,-0.736 1.96,-1.238 1.48,-1.118 1.65,-2.245 3.69,-2.713 1.9,-0.437 3.91,-0.52 5.85,-0.342 1.14,0.104 3.06,-1.206 4.2,-1.53 1.71,-0.483 2.56,-1.96 4.06,-2.792 0.46,-0.255 1.11,-0.832 1.61,-0.981 0.55,0.02 1.07,0.149 1.57,0.391 0.57,0.03 1.12,-0.04 1.66,-0.203 3.63,-0.584 4.44,-4.338 7.7,-5.939 1.52,-0.744 2.86,-0.932 4.47,-1.215 2,-0.348 3.65,-1.686 5.62,-2.154 1.36,-0.326 2.74,-0.583 4.07,-1.061 1.32,-0.478 1.79,-1.532 2.91,-2.103 0.93,-0.474 2.93,-0.415 3.21,-1.675 0.34,-1.46 -0.68,-2.788 -0.15,-4.277 1.07,-3.009 4.74,-2.89 6.99,-4.536">
    <text
       x="50%"
       y="50%"
       class="text_style"
       id="text906">TEXT</text>
  </path>
</svg>
